<?xml version="1.0" standalone="no"?>
<!DOCTYPE svg PUBLIC "-//W3C//DTD SVG 20010904//EN"
 "http://www.w3.org/TR/2001/REC-SVG-20010904/DTD/svg10.dtd">
<svg version="1.0" xmlns="http://www.w3.org/2000/svg"
 width="120.000000pt" height="50.000000pt" viewBox="0 0 120.000000 50.000000"
 preserveAspectRatio="xMidYMid meet">

<g transform="translate(0.000000,50.000000) scale(0.100000,-0.100000)"
fill="#000000" stroke="none">
<path d="M152 413 c-142 -68 -177 -181 -82 -267 152 -137 521 -177 796 -86 33
11 69 27 80 34 10 8 -13 3 -51 -9 -242 -81 -583 -39 -701 87 -40 42 -48 69
-34 112 14 44 43 69 131 116 l74 39 -80 0 c-65 0 -90 -4 -133 -26z"/>
<path d="M921 416 c2 -2 15 -9 29 -15 24 -11 24 -11 6 3 -16 13 -49 24 -35 12z"/>
<path d="M1007 359 c5 -16 15 -19 64 -19 33 0 59 -2 59 -4 0 -2 -26 -48 -59
-103 -57 -96 -58 -98 -34 -101 14 -2 30 -1 38 1 19 8 115 193 115 223 l0 25
-94 -2 c-86 -1 -93 -3 -89 -20z"/>
<path d="M224 315 c-12 -18 -15 -39 -12 -76 6 -59 17 -72 58 -72 34 0 45 7 55
41 5 17 2 22 -13 22 -11 0 -22 -9 -25 -20 -3 -11 -10 -20 -16 -20 -7 0 -11 25
-11 65 0 37 4 65 10 65 9 0 14 -14 11 -32 0 -5 10 -8 24 -8 29 0 31 7 9 38
-22 31 -69 30 -90 -3z"/>
<path d="M340 254 c0 -82 1 -85 22 -82 15 2 25 15 36 46 17 51 27 47 23 -9
l-3 -40 54 3 53 3 3 68 c2 51 6 67 17 67 12 0 15 -15 15 -70 0 -63 2 -70 20
-70 18 0 20 7 20 85 l0 85 -55 0 -54 0 -3 -72 c-2 -46 -7 -73 -15 -76 -10 -3
-13 16 -13 73 0 73 -1 76 -22 73 -15 -2 -25 -15 -36 -45 -18 -57 -35 -55 -30
2 3 38 0 45 -14 45 -16 0 -18 -11 -18 -86z"/>
<path d="M620 255 l0 -85 50 0 c36 0 52 5 59 18 9 16 11 16 24 -2 19 -26 75
-26 93 -1 21 28 17 45 -11 45 -14 0 -24 -3 -24 -7 3 -19 -2 -33 -11 -33 -5 0
-10 13 -10 29 0 30 14 41 52 41 17 0 19 4 13 27 -9 39 -24 53 -54 53 -38 0
-48 -10 -56 -57 -7 -42 -17 -53 -31 -32 -3 6 -1 16 5 22 32 32 -1 67 -63 67
l-36 0 0 -85z m190 40 c0 -14 -4 -25 -10 -25 -5 0 -10 11 -10 25 0 14 5 25 10
25 6 0 10 -11 10 -25z m-122 -2 c-5 -25 -28 -28 -28 -4 0 12 6 21 16 21 9 0
14 -7 12 -17z m2 -74 c0 -10 -7 -19 -15 -19 -15 0 -21 31 -9 43 11 10 24 -3
24 -24z"/>
<path d="M872 255 c-1 -84 -1 -85 23 -85 21 0 25 5 25 30 0 17 5 30 10 30 6 0
10 -13 10 -30 0 -25 4 -30 25 -30 25 0 25 1 25 85 0 84 0 85 -25 85 -22 0 -25
-4 -25 -35 0 -19 -4 -35 -10 -35 -5 0 -10 16 -10 35 0 30 -3 35 -23 35 -23 0
-24 -3 -25 -85z"/>
</g>
</svg>
